<?xml version="1.0" encoding="UTF-8"?>
<svg id="Layer_2" data-name="Layer 2" xmlns="http://www.w3.org/2000/svg" viewBox="0 0 746.64 516.06">
  <defs>
    <style>
      .cls-1 {
        fill: #fff;
      }

      .cls-2 {
        fill: #3694fd;
      }
    </style>
  </defs>
  <g id="Layer_1-2" data-name="Layer 1">
    <g>
      <g>
        <path class="cls-1" d="M746.64,422.76c0,63.7-30.03,89.81-103.28,89.81h-240.56c-73.26,0-103.28-26.11-103.28-89.81s30.03-89.81,103.28-89.81h240.56c73.26,0,103.28,26.11,103.28,89.81Z"/>
        <path class="cls-1" d="M152.52,445.3h-38.16c-1.03,0-1.93.73-2.11,1.74-1.77,9.72-5.09,17.47-9.97,23.24-5.5,6.51-13.27,9.76-23.33,9.76-7.74,0-14.4-2.37-19.97-7.1-5.57-4.73-9.87-11.41-12.89-20.03-3.02-8.62-4.53-18.85-4.53-30.68,0-11.49,1.43-21.64,4.3-30.43,2.86-8.79,7.12-15.63,12.77-20.54,5.65-4.9,12.5-7.35,20.55-7.35,9.13,0,16.56,3.04,22.29,9.13,5.02,5.33,8.49,12.48,10.42,21.45.21.98,1.09,1.68,2.1,1.68h38.01c1.35,0,2.36-1.23,2.12-2.56-3.78-20.67-11.53-36.66-23.28-47.95-12.31-11.83-29.53-17.75-51.66-17.75-16.1,0-30.11,3.89-42.03,11.66-11.92,7.78-21.09,18.72-27.51,32.84-6.42,14.12-9.64,30.72-9.64,49.82s3.37,36.64,10.1,50.58c6.73,13.95,16.02,24.64,27.86,32.08,11.84,7.44,25.34,11.16,40.52,11.16,14.7,0,27.32-2.79,37.85-8.37,10.52-5.58,19.04-13.65,25.54-24.21,6.1-9.9,10.35-21.78,12.77-35.63.23-1.33-.77-2.54-2.12-2.54Z"/>
        <path class="cls-1" d="M297.03,331.97h-38.22c-.77,0-1.48.41-1.86,1.07l-29.56,50.77c-.28.48-.96.48-1.24,0l-29.56-50.77c-.39-.66-1.09-1.07-1.86-1.07h-38.22c-1.66,0-2.7,1.8-1.86,3.24l50.32,86.41c.13.22.13.5,0,.72l-50.32,86.41c-.84,1.44.2,3.24,1.86,3.24h38.22c.77,0,1.48-.41,1.86-1.07l29.56-50.77c.28-.48.96-.48,1.24,0l29.56,50.77c.39.66,1.09,1.07,1.86,1.07h38.22c1.66,0,2.7-1.8,1.86-3.24l-50.32-86.41c-.13-.22-.13-.5,0-.72l50.32-86.41c.84-1.44-.2-3.24-1.86-3.24Z"/>
        <g>
          <path class="cls-2" d="M393.82,480.1c-11.43,0-21.43-2.32-30-6.96-8.57-4.64-15.21-11.28-19.93-19.93-4.71-8.64-7.07-18.89-7.07-30.75s2.39-22.6,7.18-31.39c4.78-8.78,11.46-15.53,20.03-20.25,8.57-4.71,18.43-7.07,29.57-7.07s21.35,2.43,29.78,7.28c8.43,4.86,15,11.64,19.71,20.35,4.71,8.71,7.07,19.14,7.07,31.28s-2.32,22.11-6.96,30.75c-4.64,8.64-11.14,15.25-19.5,19.82-8.36,4.57-18.32,6.86-29.89,6.86ZM393.39,452.68c6.57,0,11.85-1.43,15.86-4.29,4-2.86,6.89-6.61,8.68-11.25,1.78-4.64,2.68-9.53,2.68-14.68s-.89-10.07-2.68-14.78c-1.79-4.71-4.64-8.6-8.57-11.68-3.93-3.07-9.25-4.61-15.96-4.61s-11.64,1.54-15.64,4.61c-4,3.07-6.89,6.96-8.68,11.68-1.79,4.71-2.68,9.64-2.68,14.78s.89,10.21,2.68,14.78c1.78,4.57,4.68,8.29,8.68,11.14,4,2.86,9.21,4.29,15.64,4.29Z"/>
          <path class="cls-2" d="M471.59,478.6v-112.91h28.07l1.5,13.07c3.14-3.86,6.75-6.89,10.82-9.11,4.07-2.21,8.21-3.75,12.43-4.61,4.21-.86,8.04-1.29,11.46-1.29,10.85,0,19.32,2.36,25.39,7.07,6.07,4.71,10.42,11.03,13.07,18.96,2.64,7.93,3.96,16.75,3.96,26.46v62.35h-30v-58.49c0-3.43-.29-6.86-.86-10.28-.57-3.43-1.61-6.57-3.11-9.43-1.5-2.86-3.61-5.14-6.32-6.86-2.71-1.71-6.29-2.57-10.71-2.57-5.71,0-10.5,1.43-14.36,4.29-3.86,2.86-6.72,6.72-8.57,11.57-1.86,4.86-2.79,10.21-2.79,16.07v55.71h-30Z"/>
          <path class="cls-2" d="M655.63,480.21c-11.86,0-21.93-2.36-30.21-7.07-8.29-4.71-14.64-11.39-19.07-20.03-4.43-8.64-6.64-18.75-6.64-30.32s2.28-21.96,6.86-30.75c4.57-8.78,11.03-15.67,19.39-20.68,8.36-5,18.25-7.5,29.67-7.5,8.57,0,16.1,1.43,22.6,4.29,6.5,2.86,12,6.86,16.5,12,4.5,5.14,7.85,11.11,10.07,17.89,2.21,6.79,3.25,14.11,3.11,21.96,0,2-.07,3.93-.21,5.78-.14,1.86-.43,3.72-.86,5.57h-77.35c.43,4.29,1.64,8.22,3.64,11.78,2,3.57,4.82,6.39,8.46,8.46,3.64,2.07,8.18,3.11,13.61,3.11,3.57,0,6.86-.39,9.86-1.18,3-.78,5.57-2.04,7.71-3.75,2.14-1.71,3.64-3.71,4.5-6h29.57c-1.86,8.43-5.32,15.36-10.39,20.78-5.07,5.43-11.18,9.39-18.32,11.89-7.14,2.5-14.64,3.75-22.5,3.75ZM630.13,410.36h49.06c-.14-3.86-1.11-7.46-2.89-10.82-1.79-3.35-4.43-6.07-7.93-8.14-3.5-2.07-7.96-3.11-13.39-3.11s-9.96,1.07-13.61,3.21c-3.64,2.14-6.36,4.89-8.14,8.25-1.79,3.36-2.82,6.89-3.11,10.61Z"/>
        </g>
      </g>
      <g>
        <path class="cls-1" d="M276.15.06c-18.93-1.2-34.54,14.41-33.34,33.34.99,15.61,13.66,28.28,29.27,29.27,18.93,1.19,34.54-14.41,33.34-33.34-.99-15.61-13.66-28.28-29.27-29.27"/>
        <path class="cls-1" d="M207.59,19.71h-50.47c-1.67,0-3.01,1.35-3.01,3.01v148.01c0,1.03-1.36,1.39-1.87.5L64.88,21.21c-.54-.93-1.53-1.49-2.6-1.49H6.93c-1.66,0-3.01,1.35-3.01,3.01v245.73c0,1.66,1.35,3.01,3.01,3.01h50.47c1.66,0,3.01-1.35,3.01-3.01V121.04c0-1.02,1.35-1.39,1.87-.5l87.35,149.44c.54.93,1.53,1.49,2.6,1.49h55.36c1.67,0,3.01-1.35,3.01-3.01V22.72c0-1.67-1.35-3.01-3.01-3.01"/>
        <path class="cls-1" d="M296.47,79.21c-7.05,1.52-14.56,2.34-22.36,2.34s-15.3-.82-22.36-2.34c-1.87-.4-3.64,1.02-3.64,2.94v186.31c0,1.66,1.35,3.01,3.01,3.01h45.97c1.66,0,3.01-1.35,3.01-3.01V82.15c0-1.92-1.77-3.34-3.64-2.94"/>
        <path class="cls-1" d="M743.24,225.37h-105.08c-.55,0-1-.45-1-1v-54.72c0-.55.45-1,1-1h85.76c1.66,0,3.01-1.35,3.01-3.01v-40.07c0-1.66-1.35-3.01-3.01-3.01h-85.76c-.55,0-1-.45-1-1v-54.72c0-.55.45-1,1-1h105.08c1.66,0,3.01-1.35,3.01-3.01V22.72c0-1.67-1.35-3.01-3.01-3.01h-159.57c-1.67,0-3.01,1.35-3.01,3.01v245.73c0,1.66,1.35,3.01,3.01,3.01h159.57c1.66,0,3.01-1.35,3.01-3.01v-40.07c0-1.66-1.35-3.01-3.01-3.01"/>
        <path class="cls-1" d="M545.55,178.19h-53.36c-1.44,0-2.7,1.02-2.96,2.44-2.47,13.59-7.12,24.42-13.94,32.5-7.69,9.1-18.56,13.65-32.63,13.65-10.83,0-20.13-3.31-27.92-9.93-7.79-6.61-13.8-15.96-18.02-28.01-4.22-12.06-6.33-26.36-6.33-42.91s2-30.25,6.01-42.55c4-12.29,9.95-21.86,17.86-28.72,7.9-6.86,17.48-10.28,28.74-10.28,12.77,0,23.16,4.26,31.17,12.77,7.01,7.46,11.87,17.46,14.57,29.99.3,1.37,1.53,2.35,2.94,2.35h53.16c1.89,0,3.3-1.72,2.96-3.58-5.29-28.91-16.13-51.27-32.55-67.06-17.21-16.54-41.29-24.82-72.24-24.82-22.52,0-42.11,5.44-58.77,16.31-16.67,10.87-29.5,26.18-38.48,45.92-8.98,19.74-13.47,42.97-13.47,69.67s4.71,51.24,14.12,70.74c9.42,19.5,22.4,34.46,38.96,44.85,16.56,10.4,35.44,15.6,56.66,15.6s38.2-3.9,52.93-11.7c14.72-7.8,26.62-19.09,35.72-33.87,8.52-13.85,14.48-30.46,17.86-49.83.33-1.85-1.08-3.56-2.96-3.56"/>
      </g>
    </g>
  </g>
</svg>